# xmcd CD database file
#
# Track frame offsets:
#	150
#	17835
#	38434
#	60479
#	80635
#	102148
#	123467
#	142353
#	162778
#	181404
#	198818
#	213902
#	228881
#	249531
#
# Disc length: 3581 seconds
#
# Revision: 0
# Processed by: cddbd v1.5.2PL0 Copyright (c) Steve Scherf et al.
# Submitted via: CDex 1.99.1
#
DISCID=b60dfb0e
DTITLE=Terry, Clark (1920-2015) - Clark Terry 1960 Really Big (1-8) 1961 - White Gardenia with Johnny Griffin (9-14)
DYEAR=1961
DGENRE=Jazz
TTITLE0=Big P
TTITLE1=Old Fashoned Fun
TTITLE2=Mona's Mood
TTITLE3=Dat Dere
TTITLE4=Nails
TTITLE5=On Green Dolphin Street
TTITLE6=My Ideal
TTITLE7=Picture Of Health
TTITLE8=Gloomy Sunday
TTITLE9=That Old Devil Called Love
TTITLE10=White Gardenia
TTITLE11=God Bless The Child
TTITLE12=Detour Ahead
TTITLE13=Good Morning Heartache
EXTD=YEAR: 1961
EXTT0=
EXTT1=
EXTT2=
EXTT3=
EXTT4=
EXTT5=
EXTT6=
EXTT7=
EXTT8=
EXTT9=
EXTT10=
EXTT11=
EXTT12=
EXTT13=
PLAYORDER=
